<?xml version="1.0" standalone="no"?>
<!DOCTYPE svg PUBLIC "-//W3C//DTD SVG 20010904//EN"
 "http://www.w3.org/TR/2001/REC-SVG-20010904/DTD/svg10.dtd">
<svg version="1.0" xmlns="http://www.w3.org/2000/svg"
 width="218.000000pt" height="187.000000pt" viewBox="0 0 218.000000 187.000000"
 preserveAspectRatio="xMidYMid meet">
<metadata>
Created by potrace 1.16, written by Peter Selinger 2001-2019
</metadata>
<g transform="translate(0.000000,187.000000) scale(0.100000,-0.100000)"
fill="#000000" stroke="none">
<path d="M969 1827 c-61 -31 -109 -82 -109 -114 0 -8 14 -20 31 -27 23 -10 36
-25 45 -52 20 -57 18 -61 -35 -67 -107 -13 -254 -117 -287 -203 -18 -49 -14
-105 12 -156 19 -36 29 -32 14 6 -49 131 78 275 279 317 53 11 56 10 71 -12 8
-13 32 -42 52 -65 36 -39 37 -43 26 -75 -14 -43 -48 -97 -89 -143 -32 -37 -63
-45 -100 -26 -13 7 -19 7 -19 1 0 -12 52 -41 73 -41 21 0 129 119 157 173 16
30 32 47 43 47 21 0 87 61 87 80 0 7 -16 -2 -35 -19 -50 -44 -65 -41 -65 13 0
39 -4 48 -32 70 -18 13 -45 28 -61 31 -23 6 -30 16 -43 64 -9 33 -26 64 -41
77 l-24 21 26 31 c54 64 172 91 275 62 32 -9 33 -8 15 5 -28 22 -83 35 -147
35 -44 0 -70 -7 -119 -33z"/>
<path d="M1450 1477 l-45 -10 55 -9 c147 -22 156 -124 29 -318 -45 -68 -108
-140 -218 -251 -99 -99 -139 -146 -111 -126 308 211 499 441 500 602 0 104
-75 144 -210 112z"/>
<path d="M345 610 c-30 -33 -25 -88 9 -117 69 -59 154 39 100 115 -20 30 -83
31 -109 2z"/>
<path d="M1540 610 c-25 -25 -26 -80 -2 -111 24 -29 75 -30 104 -2 26 27 28
85 3 113 -24 26 -78 27 -105 0z"/>
<path d="M472 320 c-97 -23 -143 -165 -81 -252 31 -44 73 -61 136 -56 85 7
133 67 133 165 0 104 -84 168 -188 143z m83 -26 c37 -14 63 -117 46 -179 -21
-78 -81 -107 -134 -65 -34 27 -50 80 -45 148 4 45 10 60 32 79 26 22 68 29
101 17z"/>
<path d="M1607 193 c-33 -76 -68 -148 -78 -159 l-20 -21 56 -1 c31 0 53 4 49
9 -3 5 -12 9 -20 9 -17 0 -17 4 -2 47 12 32 13 33 70 33 54 0 59 -2 68 -26 14
-36 12 -54 -4 -54 -8 0 -17 -4 -20 -9 -4 -5 25 -9 64 -9 l71 0 -23 21 c-13 12
-47 84 -77 160 -30 75 -59 137 -65 137 -6 0 -37 -62 -69 -137z"/>
<path d="M32 305 l28 -16 0 -117 c0 -123 -3 -133 -35 -148 -14 -6 8 -10 77
-12 74 -2 105 1 128 13 58 30 61 94 6 130 l-24 16 24 24 c29 29 31 64 5 96
-18 22 -27 24 -128 27 -102 2 -106 1 -81 -13z"/>
<path d="M750 307 c24 -12 25 -15 28 -140 l3 -127 -26 -10 c-14 -5 -25 -11
-25 -14 0 -2 54 -4 120 -4 l120 0 0 41 c-1 37 -2 39 -12 22 -17 -30 -28 -35
-80 -35 l-48 0 0 129 0 129 28 10 c22 9 13 11 -53 11 -71 1 -77 -1 -55 -12z"/>
<path d="M1053 304 l27 -15 0 -124 c0 -124 0 -124 -26 -138 -24 -13 -21 -14
50 -14 42 0 73 3 70 8 -3 5 -12 9 -19 9 -21 0 -26 33 -23 155 3 105 4 110 28
122 22 11 16 13 -55 12 -77 0 -79 0 -52 -15z"/>
<path d="M1248 303 c17 -15 91 -187 117 -270 3 -13 10 -23 15 -23 5 0 32 61
61 137 29 75 62 144 73 155 19 18 19 18 -35 18 -41 -1 -50 -3 -36 -11 9 -5 17
-16 17 -24 0 -26 -62 -177 -70 -168 -8 9 -70 164 -70 176 0 4 10 12 23 17 16
6 5 9 -47 9 -66 1 -68 0 -48 -16z"/>
<path d="M1890 307 c24 -12 25 -15 28 -139 l3 -127 -28 -14 c-26 -14 -23 -15
50 -14 76 0 77 0 49 17 -25 15 -27 21 -24 73 3 40 8 57 18 57 7 0 36 -34 64
-75 47 -70 53 -75 86 -75 l36 0 -31 32 c-30 31 -87 118 -79 121 52 27 74 61
64 100 -10 43 -51 57 -163 57 -86 0 -95 -2 -73 -13z"/>
</g>
</svg>
